<svg xmlns="http://www.w3.org/2000/svg" width="96" height="96"  fill="none" xmlns:v="https://vecta.io/nano"><style><![CDATA[.B{fill:#1d252d}.C{fill-rule:evenodd}.D{color-interpolation-filters:sRGB}.E{flood-opacity:0}]]></style><g transform="translate(-.568 -.932)"><g class="B C"><path d="M72.118 67.05a1.99 1.99 0 0 0-1.95 1.95c0 6-4.5 10.95-10.5 11.55l-8.85.9v3.75l9.15-.9c7.95-.75 13.8-7.35 13.8-15.3.15-1.2-.6-1.95-1.65-1.95z"/><path d="M48.568 87.3c2.568 0 4.65-1.679 4.65-3.75s-2.082-3.75-4.65-3.75-4.65 1.679-4.65 3.75S46 87.3 48.568 87.3zm-23.1-31.2c-1.5-3.15-2.25-6.75-2.25-10.35 0-13.95 11.4-25.35 25.35-25.35s25.35 11.4 25.35 25.35c0 3.6-.75 7.05-2.25 10.35h4.8c1.2-3.3 1.8-6.75 1.8-10.35.15-16.35-13.2-29.7-29.7-29.7S18.718 29.4 18.718 45.9c0 3.6.6 7.05 1.8 10.35h4.95z"/></g><g transform="translate(8.475 11.3)" filter="url(#A)"><path d="M22.394 36.7c-6.9.15-12.3 5.7-12.3 12.45 0 6.9 5.55 12.45 12.3 12.45z" fill="url(#D)"/></g><path d="M33.268 75.6a2.69 2.69 0 0 1-2.7-2.7V48a2.69 2.69 0 1 1 5.4 0v25.05c0 1.35-1.2 2.55-2.7 2.55z" class="B C"/><g transform="translate(8.475 11.3)" filter="url(#B)"><path d="M57.794 36.7c6.75.15 12.3 5.7 12.3 12.45 0 6.9-5.55 12.45-12.3 12.45z" fill="url(#E)"/></g><path d="M63.868 75.6a2.69 2.69 0 0 0 2.7-2.7V48a2.69 2.69 0 1 0-5.4 0v25.05c0 1.35 1.2 2.55 2.7 2.55z" class="B C"/><g transform="translate(8.475 11.3)" filter="url(#C)"><path d="M57.494 10.3l-2.4 3.9c-.15.3-.6.45-.9.15-4.05-2.7-8.85-4.35-14.1-4.35s-10.05 1.65-13.95 4.35c-.3.3-.75.15-1.05-.15l-2.55-3.9c-.15-.3-.15-.75.15-.9 5.1-3.45 10.95-5.4 17.4-5.4s12.3 1.95 17.25 5.4c.3.15.45.6.15.9z" fill="url(#F)"/></g></g><defs><filter id="A" x="6.094" y="32.7" width="28.3" height="40.9" filterUnits="userSpaceOnUse" class="D"><feFlood result="A" class="E"/><feColorMatrix in="SourceAlpha" values="0 0 0 0 0 0 0 0 0 0 0 0 0 0 0 0 0 0 127 0"/><feOffset dx="4" dy="4"/><feGaussianBlur stdDeviation="4"/><feColorMatrix values="0 0 0 0 0.109804 0 0 0 0 0.12549 0 0 0 0 0.145098 0 0 0 0.3 0"/><feBlend in2="A"/><feBlend in="SourceGraphic"/></filter><filter id="B" x="53.794" y="32.7" width="28.3" height="40.9" filterUnits="userSpaceOnUse" class="D"><feFlood result="A" class="E"/><feColorMatrix in="SourceAlpha" values="0 0 0 0 0 0 0 0 0 0 0 0 0 0 0 0 0 0 127 0"/><feOffset dx="4" dy="4"/><feGaussianBlur stdDeviation="4"/><feColorMatrix values="0 0 0 0 0.109804 0 0 0 0 0.12549 0 0 0 0 0.145098 0 0 0 0.3 0"/><feBlend in2="A"/><feBlend in="SourceGraphic"/></filter><filter id="C" x="18.445" y="0" width="51.212" height="26.514" filterUnits="userSpaceOnUse" class="D"><feFlood result="A" class="E"/><feColorMatrix in="SourceAlpha" values="0 0 0 0 0 0 0 0 0 0 0 0 0 0 0 0 0 0 127 0"/><feOffset dx="4" dy="4"/><feGaussianBlur stdDeviation="4"/><feColorMatrix values="0 0 0 0 0.109804 0 0 0 0 0.12549 0 0 0 0 0.145098 0 0 0 0.3 0"/><feBlend in2="A"/><feBlend in="SourceGraphic"/></filter><linearGradient id="D" x1="10.094" y1="36.7" x2="10.094" y2="61.6" gradientUnits="userSpaceOnUse"><stop stop-color="#fad961"/><stop offset="1" stop-color="#eda923"/></linearGradient><linearGradient id="E" x1="57.794" y1="36.7" x2="57.794" y2="61.6" gradientUnits="userSpaceOnUse"><stop stop-color="#fad961"/><stop offset="1" stop-color="#eda923"/></linearGradient><linearGradient id="F" x1="22.445" y1="4" x2="22.445" y2="14.514" gradientUnits="userSpaceOnUse"><stop stop-color="#fad961"/><stop offset="1" stop-color="#eda923"/></linearGradient></defs></svg>