<?xml version="1.0" encoding="utf-8"?>
<!-- Svg Vector Icons : http://www.onlinewebfonts.com/icon -->
<!DOCTYPE svg PUBLIC "-//W3C//DTD SVG 1.1//EN" "http://www.w3.org/Graphics/SVG/1.1/DTD/svg11.dtd">
<svg version="1.1" xmlns="http://www.w3.org/2000/svg" xmlns:xlink="http://www.w3.org/1999/xlink" x="0px" y="0px" viewBox="0 0 1000 1000" enable-background="new 0 0 1000 1000" xml:space="preserve">
<metadata> Svg Vector Icons : http://www.onlinewebfonts.com/icon </metadata>
<g><path d="M990,690.6V300.9v-0.1c0-44.9-36.1-81.3-80.9-81.7l0,0h-817c-0.1,0-0.2,0-0.3,0c-0.1,0-0.2,0-0.3,0h-0.7l0,0C46.1,219.6,10,255.9,10,300.7l0,0v398.5l0,0c0,44.9,36.2,81.4,81.1,81.7l0,0h0.4c0.1,0,0.2,0,0.3,0c0.1,0,0.2,0,0.4,0l815.5,0c0.2,0,0.4,0,0.6,0c45.1,0,81.8-36.6,81.8-81.8C990,696.3,990,693.4,990,690.6z M292.2,389.5c-21.6-12-45.3-18-71.2-18c-33.7,0-61.1,11.2-82.3,33.7c-21.2,22.4-31.8,52.7-31.8,90.8c0,36.2,9.9,64.9,29.7,86.1c19.8,21.3,45.7,31.9,77.7,31.9c29.9,0,55.9-6.8,78-20.3v37.5c-22.2,11.7-50.1,17.6-83.7,17.6c-43.3,0-77.9-13.8-103.8-41.3C78.8,580,65.9,543.6,65.9,498.4c0-48.6,14.6-87.8,43.7-117.5c29.1-29.7,66.1-44.5,111-44.5c28.9,0,52.7,4.1,71.6,12.3L292.2,389.5L292.2,389.5z M664.9,643.7h-38.8V443.5c0-16.5,1-36.4,2.9-59.5h-1c-3.4,14.6-6.4,24.7-9,30.4l-99.7,229.3h-21.7l-99.5-227.5c-2.3-5.2-5.3-15.9-9-32.2H388c1.3,14,2,34.5,2,61.3v198.4h-37.3V341.5h52.9l89.2,207.2c6.8,15.9,11.2,28.2,13.5,37.1h1.4c6.8-18.6,11.5-31.2,14.2-37.9l90.7-206.4h50.3V643.7z M885.9,627.5c-19.3,14.2-46,21.3-80.2,21.3c-12,0-25.9-1.7-41.9-5c-15.9-3.3-27.5-7.4-34.8-12.4V587c9.2,8.1,21.6,14.7,37.1,19.9c15.5,5.2,30.2,7.8,44.1,7.8c42.4,0,63.6-15.1,63.6-45.3c0-8.5-2.3-16.1-6.8-22.8c-4.6-6.8-10.8-12.7-18.7-18c-7.9-5.2-22.8-13.2-44.7-24c-30.3-15.1-50.3-29.1-59.9-42c-9.6-12.9-14.4-27.7-14.4-44.4c0-25.1,10.1-45,30.2-59.7c20.2-14.7,45.6-22,76.3-22c30,0,52.1,3.6,66.1,10.9v42.5c-18.2-12.6-41.2-18.9-69.1-18.9c-18.5,0-33.5,3.9-45.2,11.6c-11.6,7.7-17.5,18.5-17.5,32.3c0,12.2,4,22.2,12.1,29.9c8.1,7.7,25.6,18.1,52.5,31.4c29.7,14.2,50.4,28.4,62.2,42.5c11.8,14.2,17.8,30.1,17.8,47.8C914.8,593,905.2,613.4,885.9,627.5z"/></g>
</svg>