<svg xmlns="http://www.w3.org/2000/svg" width="96" height="96"  fill="none" xmlns:v="https://vecta.io/nano"><g transform="translate(8 -8.386)"><path d="M51.455 39.259C65.011 39.259 76 48.022 76 58.832c0 7.719-5.603 14.393-13.743 17.58-.568 3.703.554 7.621 3.368 10.474-5.402 0-9.966-3.621-11.467-8.598-.888.078-1.789.119-2.703.119-13.556 0-24.545-8.764-24.545-19.574S37.9 39.259 51.455 39.259z" fill="#1d252d" fill-rule="evenodd"/><g transform="translate(0 16)" filter="url(#A)"><path d="M28.545 10.114C14.989 10.114 4 18.877 4 29.688c0 7.719 5.603 14.393 13.743 17.58.568 3.703-.554 7.621-3.368 10.474 5.402 0 9.966-3.621 11.467-8.598.888.078 1.789.119 2.703.119 13.556 0 24.545-8.764 24.545-19.574S42.1 10.115 28.545 10.115z" fill="url(#B)"/></g></g><defs><filter id="A" x="0" y="6.114" width="65.091" height="63.628" filterUnits="userSpaceOnUse" color-interpolation-filters="sRGB"><feFlood flood-opacity="0" result="A"/><feColorMatrix in="SourceAlpha" values="0 0 0 0 0 0 0 0 0 0 0 0 0 0 0 0 0 0 127 0"/><feOffset dx="4" dy="4"/><feGaussianBlur stdDeviation="4"/><feColorMatrix values="0 0 0 0 0.109804 0 0 0 0 0.12549 0 0 0 0 0.145098 0 0 0 0.3 0"/><feBlend in2="A"/><feBlend in="SourceGraphic"/></filter><linearGradient id="B" x1="4" y1="10.114" x2="4" y2="57.741" gradientUnits="userSpaceOnUse"><stop stop-color="#fad961"/><stop offset="1" stop-color="#eda923"/></linearGradient></defs></svg>