<svg xmlns="http://www.w3.org/2000/svg" viewBox="0 0 630 630"  xmlns:v="https://vecta.io/nano"><path d="M35 35h560v560H35z" fill="#f7df1e"/><path d="M411.178 472.502c11.28 18.418 25.956 31.956 51.911 31.956 21.804 0 35.733-10.898 35.733-25.956 0-18.044-14.311-24.436-38.311-34.933l-13.156-5.644c-37.973-16.178-63.2-36.444-63.2-79.289 0-39.467 30.071-69.511 77.067-69.511 33.458 0 57.511 11.644 74.844 42.133l-40.978 26.311c-9.022-16.178-18.756-22.551-33.867-22.551-15.413 0-25.182 9.778-25.182 22.551 0 15.787 9.778 22.178 32.356 31.956l13.156 5.636c44.711 19.173 69.956 38.72 69.956 82.667 0 47.378-37.218 73.333-87.2 73.333-48.871 0-80.444-23.289-95.893-53.813zm-185.893 4.56c8.267 14.667 15.787 27.067 33.867 27.067 17.289 0 28.196-6.764 28.196-33.067V292.129h52.622v179.644c0 54.489-31.947 79.289-78.578 79.289-42.133 0-66.533-21.804-78.942-48.067z"/></svg>