<svg xmlns="http://www.w3.org/2000/svg" height="105" width="105"  fill="#0868ac" xmlns:v="https://vecta.io/nano"><path d="M13.215 29.512c-7.968 11.453-6.976 26.353-.889 38.522.145.292.296.579.446.866l.285.548c.056.107.119.212.177.315.104.194.21.378.317.567l.581.997.331.546.675 1.055.287.443a49.82 49.82 0 0 0 .977 1.41c.008.012.017.026.028.037.053.075.111.147.165.222.289.399.588.794.89 1.183l.335.427.823 1.011.314.376 1.146 1.309.023.023c.016.019.03.03.044.049a57.52 57.52 0 0 0 1.165 1.228l.373.376.93.913.38.362c.419.394.843.782 1.274 1.16.007.007.013.012.02.016.073.065.149.126.222.189l1.158.978.48.383.965.754.516.392 1.083.777.394.28.109.077c.345.238.699.467 1.052.696l.455.303a58.56 58.56 0 0 0 1.647 1.008l.455.257 1.236.693c.225.121.456.236.684.352l.885.46.204.098.362.175 1.402.649.296.133a50.17 50.17 0 0 0 1.635.679l.398.156 1.543.572.194.068a52.9 52.9 0 0 0 1.72.562l.415.124c.588.177 1.169.39 1.776.502 38.537 7.028 49.73-23.158 49.73-23.158-9.401 12.248-26.089 15.479-41.901 11.882-.599-.135-1.18-.322-1.765-.495l-.44-.133a52.4 52.4 0 0 1-1.699-.553l-.233-.084a53.34 53.34 0 0 1-1.498-.555l-.42-.166a48.13 48.13 0 0 1-1.617-.672l-.323-.142-1.364-.635-.394-.189c-.355-.173-.706-.358-1.055-.537l-.705-.369c-.427-.228-.847-.467-1.265-.709l-.427-.238a61.11 61.11 0 0 1-1.647-1.009c-.15-.096-.296-.198-.445-.296l-1.172-.779c-.128-.087-.251-.18-.378-.266l-1.108-.801-.491-.371-1-.782-.446-.357-1.245-1.05c-.043-.037-.09-.075-.137-.114a60.43 60.43 0 0 1-1.309-1.19l-.369-.355-.941-.922-.369-.369a49.54 49.54 0 0 1-1.154-1.221c-.019-.021-.038-.04-.057-.061a46.93 46.93 0 0 1-1.171-1.333l-.307-.364-.843-1.041-.309-.385-.973-1.295c-8.778-11.974-11.932-28.489-4.916-42.052m18.516-1.761c-5.763 8.293-5.45 19.394-.955 28.164a36.69 36.69 0 0 0 2.549 4.255c.864 1.237 1.821 2.71 2.966 3.704a34.99 34.99 0 0 0 1.293 1.342c.112.114.226.224.341.336.431.418.868.829 1.321 1.228.019.014.035.033.054.047.513.451 1.03.873 1.556 1.289l.35.273c.526.404 1.063.801 1.614 1.179l.047.035c.243.168.49.324.736.485.118.077.23.159.349.231a32.76 32.76 0 0 0 1.196.733c.057.035.113.065.169.098l1.057.59c.124.07.25.131.376.196l.74.383c.037.019.076.035.112.051a37.94 37.94 0 0 0 1.543.719c.112.049.228.093.341.14a39.81 39.81 0 0 0 1.265.513l.541.198a40.13 40.13 0 0 0 1.161.404l.525.168c.554.173 1.102.39 1.679.485C90.631 72.039 97.5 49.131 97.5 49.131c-6.192 8.918-18.183 13.173-30.979 9.852-.568-.149-1.128-.313-1.685-.488-.17-.051-.337-.107-.506-.163a34.24 34.24 0 0 1-1.179-.406l-.532-.198a38.85 38.85 0 0 1-1.269-.511l-.342-.145a35.92 35.92 0 0 1-1.552-.721c-.263-.128-.52-.264-.778-.397l-.449-.231c-.331-.18-.661-.366-.985-.555l-.236-.133c-.403-.236-.799-.478-1.193-.728-.121-.077-.238-.161-.359-.24l-.773-.511a41.39 41.39 0 0 1-1.608-1.176l-.362-.285c-5.601-4.422-10.041-10.465-12.152-17.318-2.212-7.107-1.735-15.085 2.097-21.559m16.096-.564c-3.397 4.999-3.731 11.208-1.374 16.73 2.486 5.861 7.58 10.459 13.525 12.638.245.091.49.173.739.257l.326.103c.35.11.698.238 1.06.306 16.429 3.174 20.885-8.43 22.071-10.138-3.904 5.62-10.463 6.969-18.512 5.016-.636-.155-1.335-.384-1.947-.601-.786-.28-1.56-.599-2.313-.961a23.92 23.92 0 0 1-4.054-2.474c-7.203-5.465-11.677-15.89-6.977-24.38"/></svg>