<svg xmlns="http://www.w3.org/2000/svg" width="145.365" height="145.365" viewBox="0 0 109.024 109.024"  xmlns:v="https://vecta.io/nano"><path d="M54.544 0c-1.47 0-2.942.357-4.207 1.072l-39.99 23.07c-2.59 1.48-4.189 4.28-4.189 7.28v46.1a8.45 8.45 0 0 0 4.189 7.291l10.481 6.04c5.08 2.5 6.899 2.499 9.209 2.499 7.51 0 11.83-4.549 11.83-12.469v-45.52c0-.65-.52-1.15-1.15-1.15h-5.061c-.65 0-1.159.5-1.159 1.15v45.5c0 3.52-3.631 7.02-9.571 4.05l-10.939-6.321a1.23 1.23 0 0 1-.62-1.069v-46.1c0-.44.246-.87.633-1.09L53.926 7.292a1.23 1.23 0 0 1 1.23 0L95.09 30.333c.378.23.618.64.618 1.1v46.1a1.26 1.26 0 0 1-.609 1.08l-39.951 23.06c-.343.2-.868.2-1.238 0l-10.245-6.079c-.305-.18-.695-.24-.993-.07-2.835 1.61-3.375 1.82-6.031 2.75-.657.227-1.629.622.363 1.736l13.337 7.896c1.28.737 2.729 1.121 4.189 1.121l-.005-.022c1.48 0 2.93-.379 4.21-1.119l39.94-23.07c2.58-1.5 4.189-4.29 4.189-7.28v-46.1a8.43 8.43 0 0 0-4.189-7.28l-39.94-23.08C57.481.357 56.014 0 54.544 0zm10.699 33.015c-11.39 0-18.19 4.8-18.19 12.86 0 8.75 6.76 11.16 17.7 12.24 13.08 1.28 14.101 3.19 14.101 5.76 0 4.465-3.58 6.366-12 6.366-10.57 0-12.89-2.651-13.67-7.909-.09-.563-.57-.979-1.14-.979h-5.161a1.15 1.15 0 0 0-1.157 1.15c0 6.73 3.665 14.754 21.145 14.754l-.057.047c12.66 0 19.919-4.99 19.919-13.69 0-8.63-5.83-10.93-18.11-12.56-12.4-1.64-13.66-2.489-13.66-5.399 0-2.4 1.07-5.6 10.26-5.6 8.21 0 11.23 1.769 12.48 7.299.11.52.579.901 1.119.901h5.19c.32 0 .631-.141.851-.371.22-.24.339-.561.309-.891-.8-9.54-7.139-13.979-19.929-13.979z" fill="#689f63"/></svg>