<svg xmlns="http://www.w3.org/2000/svg" width="96" height="96"  fill="none" xmlns:v="https://vecta.io/nano"><g transform="translate(7.126 8.59)"><path d="M40.874 39.41l33.384 14.218c6.903-18.516-.766-40.275-19.045-47.113C37.096-.263 15.946 7.627 8.165 25.586c-7.9 18.235.767 39.436 19.008 47.205 9.053 3.856 18.799 3.691 27.269.313z" fill="#1d252d" fill-rule="evenodd"/><g filter="url(#A)"><path d="M61.152 75.511c6.461-2.966 11.984-8.039 15.43-14.775.038-.075.005-.169-.073-.202l-26.014-11.08 10.461 25.977c.031.077.12.113.195.08z" fill="url(#B)"/></g></g><defs><filter id="A" x="46.495" y="45.454" width="42.103" height="42.069" filterUnits="userSpaceOnUse" color-interpolation-filters="sRGB"><feFlood flood-opacity="0" result="A"/><feColorMatrix in="SourceAlpha" values="0 0 0 0 0 0 0 0 0 0 0 0 0 0 0 0 0 0 127 0"/><feOffset dx="4" dy="4"/><feGaussianBlur stdDeviation="4"/><feColorMatrix values="0 0 0 0 0.109804 0 0 0 0 0.12549 0 0 0 0 0.145098 0 0 0 0.3 0"/><feBlend in2="A"/><feBlend in="SourceGraphic"/></filter><linearGradient id="B" x1="50.495" y1="49.454" x2="50.495" y2="75.524" gradientUnits="userSpaceOnUse"><stop stop-color="#fad961"/><stop offset="1" stop-color="#eda923"/></linearGradient></defs></svg>