<svg xmlns="http://www.w3.org/2000/svg" width="80" height="80" fill="none"  xmlns:v="https://vecta.io/nano"><g transform="translate(-.6 2.652)"><g filter="url(#A)"><path d="M13.5 13.68l-.128 37.98H31.01l9.59 9.688 9.596-9.688h17.638V13.68z" fill="url(#B)" fill-rule="evenodd"/></g><g fill="#fff"><path d="M26.642 34.075h-5.453v6.614c0 .504-.57.767-1.161.767-.569 0-1.161-.263-1.161-.767V26.19c0-.526.591-.745 1.161-.745.591 0 1.161.219 1.161.745v6.045h5.453V26.19c0-.526.591-.745 1.161-.745.591 0 1.161.219 1.161.745v14.498c0 .504-.569.767-1.161.767-.57 0-1.161-.263-1.161-.767zm7.533-1.555h3.373c.482 0 .767.438.767.942 0 .416-.241.898-.767.898h-3.373v5.037h6.505c.482 0 .767.482.767 1.051 0 .482-.241 1.007-.767 1.007h-7.797c-.504 0-1.029-.263-1.029-.767V26.212c0-.504.526-.767 1.029-.767h7.797c.526 0 .767.526.767 1.007 0 .57-.285 1.051-.767 1.051h-6.504zm10.162 8.935c-.504 0-1.029-.263-1.029-.767V26.19c0-.526.591-.745 1.161-.745.591 0 1.161.219 1.161.745v13.206h5.694c.46 0 .701.504.701 1.029 0 .504-.241 1.029-.701 1.029z"/><path d="M54.651 25.446c-.548 0-.898.35-.898.745h0v14.498c0 .504.591.767 1.161.767.591 0 1.161-.263 1.161-.767v-5.41h2.716c2.76 0 4.928-1.336 4.928-4.84v-.175c0-3.526-2.102-4.818-4.796-4.818zm1.423 7.994v-5.935h2.716c1.621 0 2.606.898 2.606 2.825v.263c0 1.927-.986 2.847-2.606 2.847z" fill-rule="evenodd"/></g></g><defs><filter id="A" x="9.372" y="9.68" width="70.463" height="63.668" filterUnits="userSpaceOnUse" color-interpolation-filters="sRGB"><feFlood flood-opacity="0" result="A"/><feColorMatrix in="SourceAlpha" values="0 0 0 0 0 0 0 0 0 0 0 0 0 0 0 0 0 0 127 0"/><feOffset dx="4" dy="4"/><feGaussianBlur stdDeviation="4"/><feColorMatrix values="0 0 0 0 0.109804 0 0 0 0 0.12549 0 0 0 0 0.145098 0 0 0 0.3 0"/><feBlend in2="A"/><feBlend in="SourceGraphic"/></filter><linearGradient id="B" x1="13.372" y1="13.68" x2="13.372" y2="61.348" gradientUnits="userSpaceOnUse"><stop stop-color="#fad961"/><stop offset="1" stop-color="#eda923"/></linearGradient></defs></svg>