<svg xmlns="http://www.w3.org/2000/svg" width="80" height="80" fill="none"  xmlns:v="https://vecta.io/nano"><path d="M54.547 44.448L52.9 43.251l.749-.748-1.647-5.24-9.581-7.635c-1.198-.898-2.695-1.198-4.042-.748l-8.982 2.994-5.24 11.977 1.198.898L42.72 56.575c.898.599 2.246.449 2.994-.599.599-.898.449-2.246-.599-2.994l-1.497-1.048 2.395 1.647c.898.599 2.246.449 2.994-.599.599-.898.449-2.246-.599-2.994l.749.599c.898.599 2.246.449 2.994-.599.599-.898.449-2.246-.599-2.994l.749.599c.898.599 2.246.449 2.994-.599.599-.599.3-1.946-.748-2.545z" fill="url(#A)"/><path d="M54.547 44.448a2.33 2.33 0 0 1 .898 1.198l8.234-6.437-7.336-9.282-5.09 2.844-7.186-2.545c-.748-.299-1.647-.15-2.246.449l-4.641 4.341c-.449.449-.748 1.048-.599 1.647.15 1.347.299 3.892 1.048 5.689.449 1.198 1.946 1.647 2.994.898.449-.299.749-.898.898-1.347.299-1.048.898-2.994.299-4.341l.299-.299c.299-.449.898-.449 1.347-.15l11.079 7.336z" fill="url(#B)"/><g fill="#f7b64c"><path d="M31.941 45.946c.749-1.048.299-2.545-.898-2.994-.898-.449-2.096-.15-2.695.749l-2.096 3.144c-.599.898-.449 2.246.599 2.845 1.048.749 2.395.449 2.994-.599l2.096-3.144z"/><path d="M30.294 52.233c1.048.749 2.395.449 2.994-.599l2.246-3.443.749-1.048c.599-.898.449-2.246-.449-2.994-1.048-.748-2.246-.449-2.994.599l-.748 1.198-2.246 3.443c-.748.898-.449 2.096.449 2.844z"/><path d="M38.229 47.442c-.898-.449-2.096-.15-2.695.749l-2.395 3.593c-.599.898-.449 2.246.599 2.844 1.048.749 2.395.449 2.994-.599l2.395-3.593c.599-.898.15-2.395-.898-2.994z"/><path d="M40.324 51.784c-.898-.449-2.096-.15-2.695.749l-1.048 1.647c-.599.898-.449 2.246.599 2.844 1.048.749 2.395.449 2.994-.599l1.048-1.647c.599-.898.299-2.395-.898-2.994z"/></g><path d="M23.368 46.541l-8.095-3.534 6.829-15.642 8.095 3.534-6.829 15.642z" fill="#e8eae9"/><path d="M21.959 51.316L4.14 42.847l9.045-20.719 17.819 8.469-9.045 20.719z" fill="#212121"/><path fill="#e8eae9" d="M49.809 30.908l8.095-3.534 6.829 15.642-8.095 3.534z"/><path d="M49.058 31.617l17.819-9.469 9.045 20.719-17.819 9.469-9.045-20.719z" fill="#212121"/><defs><linearGradient id="A" x1="24.156" y1="28.673" x2="24.156" y2="56.925" gradientUnits="userSpaceOnUse"><stop stop-color="#fad961"/><stop offset="1" stop-color="#eda923"/></linearGradient><linearGradient id="B" x1="36.543" y1="29.927" x2="36.543" y2="45.646" gradientUnits="userSpaceOnUse"><stop stop-color="#fad961"/><stop offset="1" stop-color="#eda923"/></linearGradient></defs></svg>