<svg xmlns="http://www.w3.org/2000/svg" width="112.389" height="112.389"  xmlns:v="https://vecta.io/nano"><defs><linearGradient x1="75.522" y1="103.945" x2="53.623" y2="72.662" id="A" gradientUnits="userSpaceOnUse"><stop offset="0" stop-color="#ffd43b"/><stop offset="1" stop-color="#ffe873"/></linearGradient><linearGradient x1="5.591" y1="6.397" x2="66.918" y2="59.669" id="B" gradientUnits="userSpaceOnUse"><stop offset="0" stop-color="#5a9fd4"/><stop offset="1" stop-color="#306998"/></linearGradient></defs><g transform="translate(-4.978 -6.397)"><path d="M60.51 6.398c-4.584.021-8.961.412-12.812 1.094-11.346 2.005-13.406 6.2-13.406 13.938v10.219h26.813v3.406H34.291 24.229c-7.792 0-14.616 4.684-16.75 13.594-2.462 10.213-2.571 16.586 0 27.25 1.906 7.938 6.458 13.594 14.25 13.594h9.219v-12.25c0-8.85 7.657-16.656 16.75-16.656h26.781c7.455 0 13.406-6.138 13.406-13.625V21.429c0-7.266-6.13-12.725-13.406-13.938-4.606-.767-9.385-1.115-13.969-1.094zm-14.5 8.219c2.77 0 5.031 2.299 5.031 5.125 0 2.816-2.262 5.094-5.031 5.094-2.779 0-5.031-2.277-5.031-5.094 0-2.826 2.252-5.125 5.031-5.125z" fill="url(#B)"/><path d="M91.229 35.054V46.96c0 9.231-7.826 17-16.75 17H47.698c-7.336 0-13.406 6.278-13.406 13.625v25.531c0 7.266 6.319 11.54 13.406 13.625 8.487 2.496 16.626 2.947 26.781 0 6.75-1.954 13.406-5.888 13.406-13.625V92.898H61.104v-3.406h26.781 13.406c7.792 0 10.696-5.435 13.406-13.594 2.799-8.399 2.68-16.476 0-27.25-1.926-7.757-5.604-13.594-13.406-13.594zM76.166 99.71c2.779 0 5.031 2.277 5.031 5.094 0 2.826-2.252 5.125-5.031 5.125-2.77 0-5.031-2.299-5.031-5.125 0-2.816 2.262-5.094 5.031-5.094z" fill="url(#A)"/></g></svg>