<svg xmlns="http://www.w3.org/2000/svg" xmlns:xlink="http://www.w3.org/1999/xlink" width="64" height="64" fill="none" xmlns:v="https://vecta.io/nano"><style><![CDATA[.B{color-interpolation-filters:sRGB}.C{flood-opacity:0}.D{fill:#f9f9f9}]]></style><g transform="translate(.196 3.1)"><g transform="translate(0 -3)" filter="url(#C)"><path d="M36.7 9.6h-9.6a1.6 1.6 0 0 1 0-3.2h9.6a1.6 1.6 0 0 1 0 3.2z" fill="#212121"/></g><g transform="translate(0 -3)" filter="url(#A)"><path d="M50.195 50.159L36.7 29.683V9.6h-9.6v20.083L13.605 50.159c-2.103 3.191.186 7.442 4.008 7.442h28.575c3.822 0 6.111-4.25 4.008-7.441z" fill="#212121"/></g><g transform="translate(0 -3)" filter="url(#B)"><path d="M48.191 51.479l-5.747-8.72a.8.8 0 0 0-.668-.36H22.023a.8.8 0 0 0-.668.36l-5.747 8.719a2.36 2.36 0 0 0-.109 2.458c.424.791 1.215 1.263 2.113 1.263h28.575c.898 0 1.689-.472 2.112-1.261a2.36 2.36 0 0 0-.109-2.46z" fill="url(#I)"/></g><g transform="translate(0 -3)" filter="url(#D)" class="D"><path d="M26.3 49.6a1.6 1.6 0 1 0 0-3.2 1.6 1.6 0 1 0 0 3.2z"/></g><g transform="translate(0 -3)" filter="url(#E)" class="D"><path d="M39.1 51.2a1.6 1.6 0 1 0 0-3.2 1.6 1.6 0 1 0 0 3.2z"/></g><g transform="translate(0 -3)" filter="url(#F)" class="D"><path d="M34.302 48a.83.83 0 0 1-.569-.232c-.152-.152-.231-.36-.231-.568s.08-.416.231-.568a.83.83 0 0 1 1.128 0 .8.8 0 0 1 .241.568.8.8 0 0 1-.241.568c-.144.144-.352.232-.559.232z"/></g><g fill="#fff"><path d="M29.478 36.2a.83.83 0 0 1-.569-.232c-.152-.152-.231-.36-.231-.568s.08-.416.231-.568a.83.83 0 0 1 1.128 0c.152.152.241.36.241.568s-.088.416-.232.568c-.152.144-.36.232-.568.232z"/><use xlink:href="#J"/><path d="M31.078 21a.79.79 0 0 1-.569-.24c-.152-.144-.231-.352-.231-.56s.08-.416.231-.568a.83.83 0 0 1 1.128 0c.152.152.241.36.241.568s-.088.416-.241.568c-.144.144-.351.232-.559.232z"/></g><g transform="translate(0 -3)" filter="url(#G)" class="D"><use xlink:href="#J" x="-4" y="22.99"/></g><g transform="translate(0 -3)" filter="url(#H)" class="D"><path d="M21.502 52c-.216 0-.424-.088-.569-.232-.152-.152-.231-.36-.231-.568s.08-.416.231-.568a.83.83 0 0 1 1.128 0c.152.152.241.36.241.568s-.088.416-.241.568c-.144.144-.352.232-.559.232z"/></g></g><defs><filter id="A" x="9.804" y="6.6" width="50.191" height="60" filterUnits="userSpaceOnUse" class="B"><feFlood result="A" class="C"/><feColorMatrix in="SourceAlpha" values="0 0 0 0 0 0 0 0 0 0 0 0 0 0 0 0 0 0 127 0"/><feOffset dx="3" dy="3"/><feGaussianBlur stdDeviation="3"/><feColorMatrix values="0 0 0 0 0.109804 0 0 0 0 0.12549 0 0 0 0 0.145098 0 0 0 0.1 0"/><feBlend in2="A"/><feBlend in="SourceGraphic"/></filter><filter id="B" x="12.206" y="39.4" width="45.388" height="24.8" filterUnits="userSpaceOnUse" class="B"><feFlood result="A" class="C"/><feColorMatrix in="SourceAlpha" values="0 0 0 0 0 0 0 0 0 0 0 0 0 0 0 0 0 0 127 0"/><feOffset dx="3" dy="3"/><feGaussianBlur stdDeviation="3"/><feColorMatrix values="0 0 0 0 0.109804 0 0 0 0 0.12549 0 0 0 0 0.145098 0 0 0 0.3 0"/><feBlend in2="A"/><feBlend in="SourceGraphic"/></filter><filter id="C" x="22.5" y="3.4" width="24.8" height="15.2" filterUnits="userSpaceOnUse" class="B"><feFlood result="A" class="C"/><feColorMatrix in="SourceAlpha" values="0 0 0 0 0 0 0 0 0 0 0 0 0 0 0 0 0 0 127 0"/><feOffset dx="3" dy="3"/><feGaussianBlur stdDeviation="3"/><feColorMatrix values="0 0 0 0 0.109804 0 0 0 0 0.12549 0 0 0 0 0.145098 0 0 0 0.1 0"/><feBlend in2="A"/><feBlend in="SourceGraphic"/></filter><filter id="D" x="21.7" y="43.4" width="15.2" height="15.2" filterUnits="userSpaceOnUse" class="B"><feFlood result="A" class="C"/><feColorMatrix in="SourceAlpha" values="0 0 0 0 0 0 0 0 0 0 0 0 0 0 0 0 0 0 127 0"/><feOffset dx="3" dy="3"/><feGaussianBlur stdDeviation="3"/><feColorMatrix values="0 0 0 0 0.109804 0 0 0 0 0.12549 0 0 0 0 0.145098 0 0 0 0.3 0"/><feBlend in2="A"/><feBlend in="SourceGraphic"/></filter><filter id="E" x="34.5" y="45" width="15.2" height="15.2" filterUnits="userSpaceOnUse" class="B"><feFlood result="A" class="C"/><feColorMatrix in="SourceAlpha" values="0 0 0 0 0 0 0 0 0 0 0 0 0 0 0 0 0 0 127 0"/><feOffset dx="3" dy="3"/><feGaussianBlur stdDeviation="3"/><feColorMatrix values="0 0 0 0 0.109804 0 0 0 0 0.12549 0 0 0 0 0.145098 0 0 0 0.3 0"/><feBlend in2="A"/><feBlend in="SourceGraphic"/></filter><filter id="F" x="30.502" y="43.41" width="13.6" height="13.59" filterUnits="userSpaceOnUse" class="B"><feFlood result="A" class="C"/><feColorMatrix in="SourceAlpha" values="0 0 0 0 0 0 0 0 0 0 0 0 0 0 0 0 0 0 127 0"/><feOffset dx="3" dy="3"/><feGaussianBlur stdDeviation="3"/><feColorMatrix values="0 0 0 0 0.109804 0 0 0 0 0.12549 0 0 0 0 0.145098 0 0 0 0.3 0"/><feBlend in2="A"/><feBlend in="SourceGraphic"/></filter><filter id="G" x="25.678" y="48.2" width="13.6" height="13.59" filterUnits="userSpaceOnUse" class="B"><feFlood result="A" class="C"/><feColorMatrix in="SourceAlpha" values="0 0 0 0 0 0 0 0 0 0 0 0 0 0 0 0 0 0 127 0"/><feOffset dx="3" dy="3"/><feGaussianBlur stdDeviation="3"/><feColorMatrix values="0 0 0 0 0.109804 0 0 0 0 0.12549 0 0 0 0 0.145098 0 0 0 0.3 0"/><feBlend in2="A"/><feBlend in="SourceGraphic"/></filter><filter id="H" x="17.702" y="47.41" width="13.6" height="13.59" filterUnits="userSpaceOnUse" class="B"><feFlood result="A" class="C"/><feColorMatrix in="SourceAlpha" values="0 0 0 0 0 0 0 0 0 0 0 0 0 0 0 0 0 0 127 0"/><feOffset dx="3" dy="3"/><feGaussianBlur stdDeviation="3"/><feColorMatrix values="0 0 0 0 0.109804 0 0 0 0 0.12549 0 0 0 0 0.145098 0 0 0 0.3 0"/><feBlend in2="A"/><feBlend in="SourceGraphic"/></filter><linearGradient id="I" x1="15.206" y1="42.4" x2="15.206" y2="55.2" gradientUnits="userSpaceOnUse"><stop stop-color="#fad961"/><stop offset="1" stop-color="#eda923"/></linearGradient><path id="J" d="M33.478 29.8a.83.83 0 0 1-.569-.232c-.152-.152-.231-.36-.231-.568s.08-.416.231-.568a.83.83 0 0 1 1.128 0c.152.152.241.36.241.568s-.088.416-.241.568c-.144.144-.352.232-.559.232z"/></defs></svg>