<svg xmlns="http://www.w3.org/2000/svg" height="170.117" viewBox="0 0 170.116 170.115" width="170.117"  xmlns:v="https://vecta.io/nano"><path d="M163.448 124.583c-9.078 4.732-56.106 24.068-66.118 29.287s-15.574 5.17-23.483 1.389-57.955-23.996-66.97-28.305C2.371 124.8.002 122.983.002 121.266v-17.195s65.153-14.184 75.672-17.957 14.167-3.91 23.118-.631 62.474 12.936 71.321 16.176l-.004 16.951c.001 1.7-2.04 3.565-6.661 5.973z" fill="#a41e11"/><path d="M163.448 107.383c-9.078 4.73-56.106 24.068-66.118 29.287s-15.574 5.17-23.483 1.389-57.955-23.998-66.97-28.305-9.204-7.275-.348-10.742l69.146-26.77c10.518-3.772 14.167-3.91 23.118-.63s55.699 21.886 64.545 25.126 9.188 5.913.11 10.645z" fill="#d82c20"/><path d="M163.448 96.543c-9.078 4.732-56.106 24.068-66.118 29.289S81.756 131 73.847 127.219s-57.955-23.996-66.97-28.305C2.371 96.76.002 94.945.002 93.228V76.031s65.153-14.183 75.672-17.957 14.167-3.91 23.118-.631 62.474 12.934 71.321 16.175l-.004 16.953c.001 1.699-2.04 3.564-6.661 5.972z" fill="#a41e11"/><path d="M163.448 79.343c-9.078 4.732-56.106 24.068-66.118 29.289s-15.574 5.168-23.483 1.387-57.955-23.997-66.97-28.305-9.204-7.274-.348-10.743l69.146-26.768c10.518-3.773 14.167-3.91 23.118-.631s55.699 21.885 64.545 25.126 9.188 5.913.11 10.645z" fill="#d82c20"/><path d="M163.448 67.463c-9.078 4.732-56.106 24.069-66.118 29.29s-15.574 5.168-23.483 1.387-57.955-23.997-66.97-28.305C2.371 67.681.002 65.865.002 64.149V46.952s65.153-14.183 75.672-17.956 14.167-3.91 23.118-.631 62.474 12.934 71.321 16.175l-.004 16.952c.001 1.698-2.04 3.563-6.661 5.971z" fill="#a41e11"/><path d="M163.448 50.263c-9.078 4.732-56.106 24.069-66.118 29.289S81.756 84.72 73.847 80.94 15.892 56.943 6.877 52.635s-9.204-7.275-.348-10.743l69.146-26.768c10.518-3.774 14.167-3.91 23.118-.63s55.699 21.885 64.545 25.126 9.188 5.912.11 10.643z" fill="#d82c20"/><g fill="#fff"><path d="M107.348 33.703l-14.74 1.53-3.3 7.94-5.33-8.86-17.02-1.53 12.7-4.58-3.81-7.03 11.89 4.65 11.21-3.67-3.03 7.27zm-46.43 27.11l39.42-6.05-11.91 17.46z"/><ellipse cx="50.288" rx="21.069" ry="8.167" cy="46.283"/></g><path d="M148.098 45.093l-23.31 9.21-.02-18.43z" fill="#7a0c00"/><path d="M124.788 54.303l-2.53.99-23.3-9.21 25.81-10.21z" fill="#ad2115"/></svg>