<svg xmlns="http://www.w3.org/2000/svg" xmlns:xlink="http://www.w3.org/1999/xlink" width="230" height="230" overflow="visible"  xmlns:v="https://vecta.io/nano"><style><![CDATA[.B{fill-rule:evenodd}]]></style><defs><linearGradient id="A" x1="194.895" y1="153.558" x2="141.028" y2="117.409" xlink:href="#Q"><stop offset="0" stop-color="#871101"/><stop offset="0" stop-color="#871101"/><stop offset=".99" stop-color="#911209"/></linearGradient><linearGradient id="B" x1="151.795" y1="217.785" x2="97.93" y2="181.638" xlink:href="#Q"><stop offset="0" stop-color="#871101"/><stop offset="0" stop-color="#871101"/><stop offset=".99" stop-color="#911209"/></linearGradient><linearGradient id="C" x1="38.696" y1="127.391" x2="47.047" y2="181.661" xlink:href="#Q"><stop offset="0" stop-color="#fff"/><stop offset="0" stop-color="#fff"/><stop offset=".23" stop-color="#e57252"/><stop offset=".46" stop-color="#de3b20"/><stop offset=".99" stop-color="#a60003"/></linearGradient><linearGradient id="D" x1="96.133" y1="76.715" x2="99.21" y2="132.102" xlink:href="#Q"><stop offset="0" stop-color="#fff"/><stop offset="0" stop-color="#fff"/><stop offset=".23" stop-color="#e4714e"/><stop offset=".56" stop-color="#be1a0d"/><stop offset=".99" stop-color="#a80d00"/></linearGradient><linearGradient id="E" x1="147.103" y1="25.521" x2="156.314" y2="65.216" xlink:href="#Q"><stop offset="0" stop-color="#fff"/><stop offset="0" stop-color="#fff"/><stop offset=".18" stop-color="#e46342"/><stop offset=".4" stop-color="#c82410"/><stop offset=".99" stop-color="#a80d00"/></linearGradient><linearGradient id="F" x1="118.976" y1="11.542" x2="158.669" y2="-8.305" xlink:href="#Q"><stop offset="0" stop-color="#fff"/><stop offset="0" stop-color="#fff"/><stop offset=".54" stop-color="#c81f11"/><stop offset=".99" stop-color="#bf0905"/></linearGradient><linearGradient id="G" x1="3.903" y1="113.555" x2="7.17" y2="146.263" xlink:href="#Q"><stop offset="0" stop-color="#fff"/><stop offset="0" stop-color="#fff"/><stop offset=".31" stop-color="#de4024"/><stop offset=".99" stop-color="#bf190b"/></linearGradient><linearGradient id="H" x1="-18.556" y1="155.655" x2="135.015" y2="-2.259" xlink:href="#Q"><stop offset="0" stop-color="#bd0012"/><stop offset="0" stop-color="#bd0012"/><stop offset=".07" stop-color="#fff"/><stop offset=".17" stop-color="#fff"/><stop offset=".27" stop-color="#c82f1c"/><stop offset=".33" stop-color="#820c01"/><stop offset=".46" stop-color="#a31601"/><stop offset=".72" stop-color="#b31301"/><stop offset=".99" stop-color="#e82609"/></linearGradient><linearGradient id="I" x1="99.075" y1="171.583" x2="52.818" y2="160.167" xlink:href="#Q"><stop offset="0" stop-color="#8c0c01"/><stop offset="0" stop-color="#8c0c01"/><stop offset=".54" stop-color="#990c00"/><stop offset=".99" stop-color="#a80d0e"/></linearGradient><linearGradient id="J" x1="178.526" y1="116.065" x2="137.433" y2="79.234" xlink:href="#Q"><stop offset="0" stop-color="#7e110b"/><stop offset="0" stop-color="#7e110b"/><stop offset=".99" stop-color="#9e0c00"/></linearGradient><linearGradient id="K" x1="193.624" y1="48.487" x2="173.154" y2="26.604" xlink:href="#Q"><stop offset="0" stop-color="#79130d"/><stop offset="0" stop-color="#79130d"/><stop offset=".99" stop-color="#9e120b"/></linearGradient><radialGradient id="L" cx="143.832" cy="79.388" r="50.358" gradientTransform="translate(0,0.54999817)" xlink:href="#Q"><stop offset="0" stop-color="#a80d00"/><stop offset="0" stop-color="#a80d00"/><stop offset=".99" stop-color="#7e0e08"/></radialGradient><radialGradient id="M" cx="74.092" cy="145.751" r="66.944" gradientTransform="translate(0,0.54999817)" xlink:href="#Q"><stop offset="0" stop-color="#a30c00"/><stop offset="0" stop-color="#a30c00"/><stop offset=".99" stop-color="#800e08"/></radialGradient><linearGradient id="N" x1="26.67" y1="197.886" x2="9.989" y2="141.292" xlink:href="#Q"><stop offset="0" stop-color="#8b2114"/><stop offset="0" stop-color="#8b2114"/><stop offset=".43" stop-color="#9e100a"/><stop offset=".99" stop-color="#b3100c"/></linearGradient><linearGradient id="O" x1="154.641" y1="10.348" x2="192.039" y2="26.856" xlink:href="#Q"><stop offset="0" stop-color="#b31000"/><stop offset="0" stop-color="#b31000"/><stop offset=".44" stop-color="#910f08"/><stop offset=".99" stop-color="#791c12"/></linearGradient><linearGradient id="P" x1="174.074" y1="215.549" x2="132.276" y2="141.753" xlink:href="#Q"><stop offset="0" stop-color="#fb7655"/><stop offset="0" stop-color="#fb7655"/><stop offset=".41" stop-color="#e42b1e"/><stop offset=".99" stop-color="#900"/></linearGradient><linearGradient id="Q" gradientUnits="userSpaceOnUse"/></defs><linearGradient gradientUnits="userSpaceOnUse" x1="174.074" y1="215.549" x2="132.276" y2="141.753"><stop offset="0" stop-color="#fb7655"/><stop offset="0" stop-color="#fb7655"/><stop offset=".41" stop-color="#e42b1e"/><stop offset=".99" stop-color="#900"/></linearGradient><linearGradient gradientUnits="userSpaceOnUse" x1="194.895" y1="153.558" x2="141.028" y2="117.409"><stop offset="0" stop-color="#871101"/><stop offset="0" stop-color="#871101"/><stop offset=".99" stop-color="#911209"/></linearGradient><linearGradient gradientUnits="userSpaceOnUse" x1="151.795" y1="217.785" x2="97.93" y2="181.638"><stop offset="0" stop-color="#871101"/><stop offset="0" stop-color="#871101"/><stop offset=".99" stop-color="#911209"/></linearGradient><linearGradient gradientUnits="userSpaceOnUse" x1="38.696" y1="127.391" x2="47.047" y2="181.661"><stop offset="0" stop-color="#fff"/><stop offset="0" stop-color="#fff"/><stop offset=".23" stop-color="#e57252"/><stop offset=".46" stop-color="#de3b20"/><stop offset=".99" stop-color="#a60003"/></linearGradient><linearGradient gradientUnits="userSpaceOnUse" x1="96.133" y1="76.715" x2="99.21" y2="132.102"><stop offset="0" stop-color="#fff"/><stop offset="0" stop-color="#fff"/><stop offset=".23" stop-color="#e4714e"/><stop offset=".56" stop-color="#be1a0d"/><stop offset=".99" stop-color="#a80d00"/></linearGradient><linearGradient gradientUnits="userSpaceOnUse" x1="147.103" y1="25.521" x2="156.314" y2="65.216"><stop offset="0" stop-color="#fff"/><stop offset="0" stop-color="#fff"/><stop offset=".18" stop-color="#e46342"/><stop offset=".4" stop-color="#c82410"/><stop offset=".99" stop-color="#a80d00"/></linearGradient><linearGradient gradientUnits="userSpaceOnUse" x1="118.976" y1="11.542" x2="158.669" y2="-8.305"><stop offset="0" stop-color="#fff"/><stop offset="0" stop-color="#fff"/><stop offset=".54" stop-color="#c81f11"/><stop offset=".99" stop-color="#bf0905"/></linearGradient><linearGradient gradientUnits="userSpaceOnUse" x1="3.903" y1="113.555" x2="7.17" y2="146.263"><stop offset="0" stop-color="#fff"/><stop offset="0" stop-color="#fff"/><stop offset=".31" stop-color="#de4024"/><stop offset=".99" stop-color="#bf190b"/></linearGradient><linearGradient gradientUnits="userSpaceOnUse" x1="-18.556" y1="155.105" x2="135.015" y2="-2.809"><stop offset="0" stop-color="#bd0012"/><stop offset="0" stop-color="#bd0012"/><stop offset=".07" stop-color="#fff"/><stop offset=".17" stop-color="#fff"/><stop offset=".27" stop-color="#c82f1c"/><stop offset=".33" stop-color="#820c01"/><stop offset=".46" stop-color="#a31601"/><stop offset=".72" stop-color="#b31301"/><stop offset=".99" stop-color="#e82609"/></linearGradient><linearGradient gradientUnits="userSpaceOnUse" x1="99.075" y1="171.033" x2="52.818" y2="159.617"><stop offset="0" stop-color="#8c0c01"/><stop offset="0" stop-color="#8c0c01"/><stop offset=".54" stop-color="#990c00"/><stop offset=".99" stop-color="#a80d0e"/></linearGradient><linearGradient gradientUnits="userSpaceOnUse" x1="178.526" y1="115.515" x2="137.433" y2="78.684"><stop offset="0" stop-color="#7e110b"/><stop offset="0" stop-color="#7e110b"/><stop offset=".99" stop-color="#9e0c00"/></linearGradient><linearGradient gradientUnits="userSpaceOnUse" x1="193.624" y1="47.937" x2="173.154" y2="26.054"><stop offset="0" stop-color="#79130d"/><stop offset="0" stop-color="#79130d"/><stop offset=".99" stop-color="#9e120b"/></linearGradient><radialGradient cx="143.832" cy="79.388" r="50.358" gradientUnits="userSpaceOnUse"><stop offset="0" stop-color="#a80d00"/><stop offset="0" stop-color="#a80d00"/><stop offset=".99" stop-color="#7e0e08"/></radialGradient><radialGradient cx="74.092" cy="145.751" r="66.944" gradientUnits="userSpaceOnUse"><stop offset="0" stop-color="#a30c00"/><stop offset="0" stop-color="#a30c00"/><stop offset=".99" stop-color="#800e08"/></radialGradient><linearGradient gradientUnits="userSpaceOnUse" x1="26.67" y1="197.336" x2="9.989" y2="140.742"><stop offset="0" stop-color="#8b2114"/><stop offset="0" stop-color="#8b2114"/><stop offset=".43" stop-color="#9e100a"/><stop offset=".99" stop-color="#b3100c"/></linearGradient><linearGradient gradientUnits="userSpaceOnUse" x1="154.641" y1="9.798" x2="192.039" y2="26.306"><stop offset="0" stop-color="#b31000"/><stop offset="0" stop-color="#b31000"/><stop offset=".44" stop-color="#910f08"/><stop offset=".99" stop-color="#791c12"/></linearGradient><g transform="matrix(.958966 0 0 .958966 20 19.736286)" class="B"><g transform="translate(0 .55)"><path d="M153.5 130.41L40.38 197.58l146.469-9.939L198.13 39.95z" fill="url(#P)"/><path d="M174.5 100.65l-34.291 45.28 46.88 41.61z" fill="url(#A)"/><path d="M95.03 180.3l-54.16 17.091 146.389-9.851z" fill="url(#B)"/><path d="M64.04 121.93l-50.7 10.841L41 197.41z" fill="url(#C)"/><path d="M119 63.14l-60.67 56.87 81.87 26.17z" fill="url(#D)"/><path d="M135.97 17.47L120 69.1l73.32-4.79z" fill="url(#E)"/><path d="M132.77 19.41L111.49.52l55.01.25z" fill="url(#F)"/><path d="M14.13 132.32L2.7 101.62 0 158.09z" fill="url(#G)"/></g><path d="M1.94 101.2l11.5 32.62 49.97-11.211 57.05-53.02 16.1-51.139L111.209.55l-43.1 16.13L27.23 54.77c-.94.48-17.4 31.59-25.29 46.43z" fill="#fff"/><path d="M42.32 42.6c29.43-29.18 67.37-46.42 81.93-31.73 14.551 14.69-.88 50.39-30.31 79.56s-66.9 47.36-81.45 32.67c-14.56-14.68.4-51.33 29.83-80.5z" fill="url(#H)"/><path d="M41 197.93l22.86-75.72 75.92 24.39C112.33 172.34 81.8 194.1 41 197.93z" fill="url(#I)"/><path d="M120.56 69.44l19.49 77.2c22.93-24.11 43.51-50.03 53.589-82.09z" fill="url(#J)"/><path d="M193.44 64.94c7.8-23.54 9.6-57.31-27.181-63.58l-30.18 16.67z" fill="url(#K)"/><path d="M0 158.3c1.08 38.851 29.11 39.43 41.05 39.771L13.47 133.66z" fill="#9e1209"/><path d="M120.669 69.56l53.851 32.98c1.119.63 15.31-23.93 18.53-37.81z" fill="url(#L)"/><path d="M63.83 122.21l30.56 58.96c18.07-9.8 32.22-21.74 45.18-34.53z" fill="url(#M)"/><path d="M13.35 133.74L9.02 185.3c8.17 11.16 19.41 12.13 31.2 11.26-8.53-21.23-25.57-63.68-26.87-62.82z" fill="url(#N)"/><path d="M135.9 18.16l60.71 8.52c-3.24-13.73-13.19-22.59-30.15-25.36z" fill="url(#O)"/></g></svg>