<svg xmlns="http://www.w3.org/2000/svg" width="96" height="96"  fill="none" xmlns:v="https://vecta.io/nano"><g transform="translate(7.994 -8.094)"><g transform="translate(0 16)" filter="url(#A)"><path d="M33.65 40.094C33.65 28.45 43.1 19 54.744 19s21.234 9.45 21.234 21.094-9.591 21.094-21.234 21.094-21.094-9.45-21.094-21.094zm12.656 0c0 4.64 3.797 8.437 8.438 8.437s8.437-3.797 8.437-8.437-3.797-8.438-8.437-8.438-8.438 3.797-8.438 8.438z" fill="url(#B)" fill-rule="evenodd"/></g><g fill-rule="evenodd"><path d="M25.234 35C13.591 35 4 44.45 4 56.094s9.591 21.094 21.234 21.094 21.094-9.45 21.094-21.094S36.878 35 25.234 35zm0 29.531c-4.64 0-8.437-3.797-8.437-8.437s3.797-8.438 8.438-8.438 8.438 3.797 8.438 8.438-3.797 8.437-8.437 8.437z" fill="#eda923"/><g fill="#1d252d"><path d="M46.328 56.094C46.328 44.45 36.878 35 25.234 35S4 44.45 4 56.094h12.797c0-4.641 3.797-8.438 8.438-8.438s8.438 3.797 8.438 8.438h12.656z"/><path d="M76 56.094c0 11.644-9.591 21.094-21.234 21.094s-21.094-9.45-21.094-21.094h12.656c0 4.64 3.797 8.437 8.438 8.437s8.438-3.797 8.438-8.437z"/></g></g></g><defs><filter id="A" x="30" y="15" width="58.328" height="58.188" filterUnits="userSpaceOnUse" color-interpolation-filters="sRGB"><feFlood flood-opacity="0" result="A"/><feColorMatrix in="SourceAlpha" values="0 0 0 0 0 0 0 0 0 0 0 0 0 0 0 0 0 0 127 0"/><feOffset dx="4" dy="4"/><feGaussianBlur stdDeviation="4"/><feColorMatrix values="0 0 0 0 0.109804 0 0 0 0 0.12549 0 0 0 0 0.145098 0 0 0 0.3 0"/><feBlend in2="A"/><feBlend in="SourceGraphic"/></filter><linearGradient id="B" x1="33.65" y1="19" x2="33.65" y2="61.188" gradientUnits="userSpaceOnUse"><stop stop-color="#fad961"/><stop offset="1" stop-color="#eda923"/></linearGradient></defs></svg>