<svg xmlns="http://www.w3.org/2000/svg" width="752.8" height="752.8"  xmlns:v="https://vecta.io/nano"><path d="M694.9 580.2L389.8 752.8V618.4l190.1-104.6zm20.9-18.9V200.4l-111.6 64.5v232zM57.9 580.2L363 752.8V618.4L172.8 513.8zM37 561.3V200.4l111.6 64.5v232zM50.1 177L363 0v129.9L162.5 240.2l-1.6.9zm652.6 0L389.8 0v129.9l200.5 110.2 1.6.9z" fill="#8ed6fb"/><path d="M363 587.8L175.4 484.6V280.3L363 388.6zm26.8 0l187.6-103.1V280.3L389.8 388.6zm-13.4-207zM188.1 256.7l188.3-103.5 188.3 103.5-188.3 108.7z" fill="#1c78c0"/></svg>